<mxfile host="app.diagrams.net" agent="Mozilla/5.0 (Windows NT 10.0; Win64; x64) AppleWebKit/537.36 (KHTML, like Gecko) Chrome/139.0.0.0 Safari/537.36" version="28.2.0">
  <diagram name="Página-1" id="pnn0U3ywLNzXR2LEUKJB">
    <mxGraphModel grid="1" page="1" gridSize="10" guides="1" tooltips="1" connect="1" arrows="1" fold="1" pageScale="1" pageWidth="827" pageHeight="1169" math="0" shadow="0">
      <root>
        <mxCell id="0" />
        <mxCell id="1" parent="0" />
        <mxCell id="3Z8iZQ5EBubLeYBYE2G_-1" value="&lt;b&gt;usuario&lt;/b&gt;" style="rounded=1;whiteSpace=wrap;html=1;shadow=1;" vertex="1" parent="1">
          <mxGeometry x="40" y="95" width="90" height="50" as="geometry" />
        </mxCell>
        <mxCell id="3Z8iZQ5EBubLeYBYE2G_-3" value="&lt;b&gt;realiza&lt;/b&gt;" style="rhombus;whiteSpace=wrap;html=1;shadow=1;rounded=1;" vertex="1" parent="1">
          <mxGeometry x="160" y="85" width="60" height="70" as="geometry" />
        </mxCell>
        <mxCell id="3Z8iZQ5EBubLeYBYE2G_-4" value="&lt;div&gt;&lt;b&gt;préstamo&lt;/b&gt;&lt;/div&gt;" style="rounded=1;whiteSpace=wrap;html=1;shadow=1;" vertex="1" parent="1">
          <mxGeometry x="250" y="95" width="90" height="50" as="geometry" />
        </mxCell>
        <mxCell id="3Z8iZQ5EBubLeYBYE2G_-5" value="&lt;b&gt;contiene&lt;/b&gt;" style="rhombus;whiteSpace=wrap;html=1;shadow=1;rounded=1;" vertex="1" parent="1">
          <mxGeometry x="370" y="85" width="66" height="70" as="geometry" />
        </mxCell>
        <mxCell id="3Z8iZQ5EBubLeYBYE2G_-6" value="&lt;b&gt;libros&lt;/b&gt;" style="rounded=1;whiteSpace=wrap;html=1;shadow=1;" vertex="1" parent="1">
          <mxGeometry x="470" y="95" width="90" height="50" as="geometry" />
        </mxCell>
        <mxCell id="3Z8iZQ5EBubLeYBYE2G_-8" value="&lt;b&gt;tiene&amp;nbsp;&lt;br&gt;mucho&lt;/b&gt;" style="rhombus;whiteSpace=wrap;html=1;shadow=1;rounded=1;" vertex="1" parent="1">
          <mxGeometry x="590" y="85" width="70" height="70" as="geometry" />
        </mxCell>
        <mxCell id="3Z8iZQ5EBubLeYBYE2G_-9" value="&lt;b&gt;autor&lt;/b&gt;" style="rounded=1;whiteSpace=wrap;html=1;shadow=1;" vertex="1" parent="1">
          <mxGeometry x="690" y="95" width="90" height="50" as="geometry" />
        </mxCell>
        <mxCell id="3Z8iZQ5EBubLeYBYE2G_-23" value="&lt;font style=&quot;font-size: 10px;&quot;&gt;id_usuario&lt;br&gt;&lt;/font&gt;" style="ellipse;whiteSpace=wrap;html=1;" vertex="1" parent="1">
          <mxGeometry x="20" y="10" width="60" height="40" as="geometry" />
        </mxCell>
        <mxCell id="3Z8iZQ5EBubLeYBYE2G_-24" value="nombre" style="ellipse;whiteSpace=wrap;html=1;" vertex="1" parent="1">
          <mxGeometry x="90" y="10" width="60" height="40" as="geometry" />
        </mxCell>
        <mxCell id="3Z8iZQ5EBubLeYBYE2G_-25" value="dirección" style="ellipse;whiteSpace=wrap;html=1;" vertex="1" parent="1">
          <mxGeometry x="20" y="190" width="60" height="40" as="geometry" />
        </mxCell>
        <mxCell id="3Z8iZQ5EBubLeYBYE2G_-26" value="teléfono" style="ellipse;whiteSpace=wrap;html=1;" vertex="1" parent="1">
          <mxGeometry x="90" y="190" width="60" height="40" as="geometry" />
        </mxCell>
        <mxCell id="3Z8iZQ5EBubLeYBYE2G_-27" value="" style="endArrow=none;html=1;rounded=0;exitX=0.5;exitY=0;exitDx=0;exitDy=0;entryX=0.111;entryY=1.004;entryDx=0;entryDy=0;entryPerimeter=0;" edge="1" parent="1" source="3Z8iZQ5EBubLeYBYE2G_-25" target="3Z8iZQ5EBubLeYBYE2G_-1">
          <mxGeometry width="50" height="50" relative="1" as="geometry">
            <mxPoint x="50" y="180" as="sourcePoint" />
            <mxPoint x="50" y="150" as="targetPoint" />
            <Array as="points">
              <mxPoint x="50" y="160" />
            </Array>
          </mxGeometry>
        </mxCell>
        <mxCell id="3Z8iZQ5EBubLeYBYE2G_-28" value="" style="endArrow=none;html=1;rounded=0;exitX=0.5;exitY=0;exitDx=0;exitDy=0;entryX=0.111;entryY=1.004;entryDx=0;entryDy=0;entryPerimeter=0;" edge="1" parent="1">
          <mxGeometry width="50" height="50" relative="1" as="geometry">
            <mxPoint x="119.5" y="190" as="sourcePoint" />
            <mxPoint x="119.5" y="145" as="targetPoint" />
            <Array as="points">
              <mxPoint x="119.5" y="160" />
            </Array>
          </mxGeometry>
        </mxCell>
        <mxCell id="3Z8iZQ5EBubLeYBYE2G_-29" value="" style="endArrow=none;html=1;rounded=0;exitX=0.5;exitY=0;exitDx=0;exitDy=0;entryX=0.111;entryY=1.004;entryDx=0;entryDy=0;entryPerimeter=0;" edge="1" parent="1">
          <mxGeometry width="50" height="50" relative="1" as="geometry">
            <mxPoint x="49.5" y="95" as="sourcePoint" />
            <mxPoint x="49.5" y="50" as="targetPoint" />
            <Array as="points">
              <mxPoint x="49.5" y="65" />
            </Array>
          </mxGeometry>
        </mxCell>
        <mxCell id="3Z8iZQ5EBubLeYBYE2G_-30" value="" style="endArrow=none;html=1;rounded=0;exitX=0.5;exitY=0;exitDx=0;exitDy=0;entryX=0.111;entryY=1.004;entryDx=0;entryDy=0;entryPerimeter=0;" edge="1" parent="1">
          <mxGeometry width="50" height="50" relative="1" as="geometry">
            <mxPoint x="119.5" y="95" as="sourcePoint" />
            <mxPoint x="119.5" y="50" as="targetPoint" />
            <Array as="points">
              <mxPoint x="119.5" y="65" />
            </Array>
          </mxGeometry>
        </mxCell>
        <mxCell id="3Z8iZQ5EBubLeYBYE2G_-31" value="&lt;font style=&quot;font-size: 9px;&quot;&gt;fecha_devolución&lt;/font&gt;" style="ellipse;whiteSpace=wrap;html=1;" vertex="1" parent="1">
          <mxGeometry x="180" y="190" width="80" height="40" as="geometry" />
        </mxCell>
        <mxCell id="3Z8iZQ5EBubLeYBYE2G_-32" value="&lt;font style=&quot;font-size: 10px;&quot;&gt;id_usuario&lt;br&gt;&lt;/font&gt;" style="ellipse;whiteSpace=wrap;html=1;" vertex="1" parent="1">
          <mxGeometry x="270" y="190" width="60" height="40" as="geometry" />
        </mxCell>
        <mxCell id="3Z8iZQ5EBubLeYBYE2G_-33" value="&lt;font style=&quot;&quot;&gt;&lt;font style=&quot;font-size: 10px;&quot;&gt;id_préstamo&lt;/font&gt;&lt;br&gt;&lt;/font&gt;" style="ellipse;whiteSpace=wrap;html=1;" vertex="1" parent="1">
          <mxGeometry x="220" y="10" width="70" height="40" as="geometry" />
        </mxCell>
        <mxCell id="3Z8iZQ5EBubLeYBYE2G_-34" value="&lt;font style=&quot;font-size: 9px;&quot;&gt;fecha_préstamo&lt;/font&gt;" style="ellipse;whiteSpace=wrap;html=1;align=center;" vertex="1" parent="1">
          <mxGeometry x="300" y="10" width="70" height="40" as="geometry" />
        </mxCell>
        <mxCell id="3Z8iZQ5EBubLeYBYE2G_-35" value="" style="endArrow=none;html=1;rounded=0;exitX=0.5;exitY=0;exitDx=0;exitDy=0;entryX=0.111;entryY=1.004;entryDx=0;entryDy=0;entryPerimeter=0;" edge="1" parent="1">
          <mxGeometry width="50" height="50" relative="1" as="geometry">
            <mxPoint x="259.5" y="95" as="sourcePoint" />
            <mxPoint x="259.5" y="50" as="targetPoint" />
            <Array as="points">
              <mxPoint x="259.5" y="65" />
            </Array>
          </mxGeometry>
        </mxCell>
        <mxCell id="3Z8iZQ5EBubLeYBYE2G_-36" value="" style="endArrow=none;html=1;rounded=0;exitX=0.5;exitY=0;exitDx=0;exitDy=0;entryX=0.111;entryY=1.004;entryDx=0;entryDy=0;entryPerimeter=0;" edge="1" parent="1">
          <mxGeometry width="50" height="50" relative="1" as="geometry">
            <mxPoint x="330" y="95" as="sourcePoint" />
            <mxPoint x="330" y="50" as="targetPoint" />
            <Array as="points">
              <mxPoint x="330" y="65" />
            </Array>
          </mxGeometry>
        </mxCell>
        <mxCell id="3Z8iZQ5EBubLeYBYE2G_-37" value="" style="endArrow=none;html=1;rounded=0;" edge="1" parent="1">
          <mxGeometry width="50" height="50" relative="1" as="geometry">
            <mxPoint x="230.5" y="188" as="sourcePoint" />
            <mxPoint x="250" y="140" as="targetPoint" />
            <Array as="points" />
          </mxGeometry>
        </mxCell>
        <mxCell id="3Z8iZQ5EBubLeYBYE2G_-38" value="" style="endArrow=none;html=1;rounded=0;exitX=0.5;exitY=0;exitDx=0;exitDy=0;entryX=0.111;entryY=1.004;entryDx=0;entryDy=0;entryPerimeter=0;" edge="1" parent="1">
          <mxGeometry width="50" height="50" relative="1" as="geometry">
            <mxPoint x="300" y="190" as="sourcePoint" />
            <mxPoint x="300" y="145" as="targetPoint" />
            <Array as="points">
              <mxPoint x="300" y="160" />
            </Array>
          </mxGeometry>
        </mxCell>
        <mxCell id="3Z8iZQ5EBubLeYBYE2G_-39" value="id_libro" style="ellipse;whiteSpace=wrap;html=1;" vertex="1" parent="1">
          <mxGeometry x="340" y="190" width="60" height="40" as="geometry" />
        </mxCell>
        <mxCell id="3Z8iZQ5EBubLeYBYE2G_-40" value="" style="endArrow=none;html=1;rounded=0;exitX=0.5;exitY=0;exitDx=0;exitDy=0;" edge="1" parent="1" source="3Z8iZQ5EBubLeYBYE2G_-39">
          <mxGeometry width="50" height="50" relative="1" as="geometry">
            <mxPoint x="320.25" y="190" as="sourcePoint" />
            <mxPoint x="339.75" y="142" as="targetPoint" />
            <Array as="points" />
          </mxGeometry>
        </mxCell>
        <mxCell id="3Z8iZQ5EBubLeYBYE2G_-41" value="id_libro" style="ellipse;whiteSpace=wrap;html=1;" vertex="1" parent="1">
          <mxGeometry x="450" y="10" width="60" height="40" as="geometry" />
        </mxCell>
        <mxCell id="3Z8iZQ5EBubLeYBYE2G_-42" value="título" style="ellipse;whiteSpace=wrap;html=1;" vertex="1" parent="1">
          <mxGeometry x="520" y="10" width="60" height="40" as="geometry" />
        </mxCell>
        <mxCell id="3Z8iZQ5EBubLeYBYE2G_-43" value="&lt;font style=&quot;font-size: 10px;&quot;&gt;anio_publicación&lt;/font&gt;" style="ellipse;whiteSpace=wrap;html=1;" vertex="1" parent="1">
          <mxGeometry x="436" y="190" width="80" height="40" as="geometry" />
        </mxCell>
        <mxCell id="3Z8iZQ5EBubLeYBYE2G_-44" value="género" style="ellipse;whiteSpace=wrap;html=1;" vertex="1" parent="1">
          <mxGeometry x="520" y="190" width="70" height="40" as="geometry" />
        </mxCell>
        <mxCell id="3Z8iZQ5EBubLeYBYE2G_-45" value="" style="endArrow=none;html=1;rounded=0;exitX=0.5;exitY=0;exitDx=0;exitDy=0;entryX=0.111;entryY=1.004;entryDx=0;entryDy=0;entryPerimeter=0;" edge="1" parent="1">
          <mxGeometry width="50" height="50" relative="1" as="geometry">
            <mxPoint x="479.5" y="190" as="sourcePoint" />
            <mxPoint x="479.5" y="145" as="targetPoint" />
            <Array as="points">
              <mxPoint x="479.5" y="160" />
            </Array>
          </mxGeometry>
        </mxCell>
        <mxCell id="3Z8iZQ5EBubLeYBYE2G_-46" value="" style="endArrow=none;html=1;rounded=0;exitX=0.5;exitY=0;exitDx=0;exitDy=0;entryX=0.111;entryY=1.004;entryDx=0;entryDy=0;entryPerimeter=0;" edge="1" parent="1">
          <mxGeometry width="50" height="50" relative="1" as="geometry">
            <mxPoint x="549.5" y="190" as="sourcePoint" />
            <mxPoint x="549.5" y="145" as="targetPoint" />
            <Array as="points">
              <mxPoint x="549.5" y="160" />
            </Array>
          </mxGeometry>
        </mxCell>
        <mxCell id="3Z8iZQ5EBubLeYBYE2G_-47" value="" style="endArrow=none;html=1;rounded=0;exitX=0.5;exitY=0;exitDx=0;exitDy=0;entryX=0.111;entryY=1.004;entryDx=0;entryDy=0;entryPerimeter=0;" edge="1" parent="1">
          <mxGeometry width="50" height="50" relative="1" as="geometry">
            <mxPoint x="479.5" y="95" as="sourcePoint" />
            <mxPoint x="479.5" y="50" as="targetPoint" />
            <Array as="points">
              <mxPoint x="479.5" y="65" />
            </Array>
          </mxGeometry>
        </mxCell>
        <mxCell id="3Z8iZQ5EBubLeYBYE2G_-48" value="" style="endArrow=none;html=1;rounded=0;exitX=0.5;exitY=0;exitDx=0;exitDy=0;entryX=0.111;entryY=1.004;entryDx=0;entryDy=0;entryPerimeter=0;" edge="1" parent="1">
          <mxGeometry width="50" height="50" relative="1" as="geometry">
            <mxPoint x="549.5" y="95" as="sourcePoint" />
            <mxPoint x="549.5" y="50" as="targetPoint" />
            <Array as="points">
              <mxPoint x="549.5" y="65" />
            </Array>
          </mxGeometry>
        </mxCell>
        <mxCell id="3Z8iZQ5EBubLeYBYE2G_-49" value="nombre" style="ellipse;whiteSpace=wrap;html=1;" vertex="1" parent="1">
          <mxGeometry x="660" y="190" width="70" height="40" as="geometry" />
        </mxCell>
        <mxCell id="3Z8iZQ5EBubLeYBYE2G_-51" value="id_autor" style="ellipse;whiteSpace=wrap;html=1;" vertex="1" parent="1">
          <mxGeometry x="705" y="10" width="60" height="40" as="geometry" />
        </mxCell>
        <mxCell id="3Z8iZQ5EBubLeYBYE2G_-52" value="nacionalidad" style="ellipse;whiteSpace=wrap;html=1;" vertex="1" parent="1">
          <mxGeometry x="740" y="190" width="70" height="40" as="geometry" />
        </mxCell>
        <mxCell id="3Z8iZQ5EBubLeYBYE2G_-53" value="" style="endArrow=none;html=1;rounded=0;exitX=0.5;exitY=0;exitDx=0;exitDy=0;entryX=0.111;entryY=1.004;entryDx=0;entryDy=0;entryPerimeter=0;" edge="1" parent="1">
          <mxGeometry width="50" height="50" relative="1" as="geometry">
            <mxPoint x="734.5" y="95" as="sourcePoint" />
            <mxPoint x="734.5" y="50" as="targetPoint" />
            <Array as="points">
              <mxPoint x="734.5" y="65" />
            </Array>
          </mxGeometry>
        </mxCell>
        <mxCell id="3Z8iZQ5EBubLeYBYE2G_-54" value="" style="endArrow=none;html=1;rounded=0;exitX=0.5;exitY=0;exitDx=0;exitDy=0;entryX=0.111;entryY=1.004;entryDx=0;entryDy=0;entryPerimeter=0;" edge="1" parent="1">
          <mxGeometry width="50" height="50" relative="1" as="geometry">
            <mxPoint x="704" y="190" as="sourcePoint" />
            <mxPoint x="704" y="145" as="targetPoint" />
            <Array as="points">
              <mxPoint x="704" y="160" />
            </Array>
          </mxGeometry>
        </mxCell>
        <mxCell id="3Z8iZQ5EBubLeYBYE2G_-55" value="" style="endArrow=none;html=1;rounded=0;exitX=0.5;exitY=0;exitDx=0;exitDy=0;entryX=0.111;entryY=1.004;entryDx=0;entryDy=0;entryPerimeter=0;" edge="1" parent="1">
          <mxGeometry width="50" height="50" relative="1" as="geometry">
            <mxPoint x="765" y="190" as="sourcePoint" />
            <mxPoint x="765" y="145" as="targetPoint" />
            <Array as="points">
              <mxPoint x="765" y="160" />
            </Array>
          </mxGeometry>
        </mxCell>
        <mxCell id="3Z8iZQ5EBubLeYBYE2G_-56" value="usuario" style="shape=table;startSize=30;container=1;collapsible=1;childLayout=tableLayout;fixedRows=1;rowLines=0;fontStyle=1;align=center;resizeLast=1;html=1;rounded=1;shadow=1;" vertex="1" parent="1">
          <mxGeometry x="20" y="320" width="180" height="150" as="geometry" />
        </mxCell>
        <mxCell id="3Z8iZQ5EBubLeYBYE2G_-57" value="" style="shape=tableRow;horizontal=0;startSize=0;swimlaneHead=0;swimlaneBody=0;fillColor=none;collapsible=0;dropTarget=0;points=[[0,0.5],[1,0.5]];portConstraint=eastwest;top=0;left=0;right=0;bottom=1;" vertex="1" parent="3Z8iZQ5EBubLeYBYE2G_-56">
          <mxGeometry y="30" width="180" height="30" as="geometry" />
        </mxCell>
        <mxCell id="3Z8iZQ5EBubLeYBYE2G_-58" value="PK" style="shape=partialRectangle;connectable=0;fillColor=none;top=0;left=0;bottom=0;right=0;fontStyle=1;overflow=hidden;whiteSpace=wrap;html=1;" vertex="1" parent="3Z8iZQ5EBubLeYBYE2G_-57">
          <mxGeometry width="30" height="30" as="geometry">
            <mxRectangle width="30" height="30" as="alternateBounds" />
          </mxGeometry>
        </mxCell>
        <mxCell id="3Z8iZQ5EBubLeYBYE2G_-59" value="id_usuario" style="shape=partialRectangle;connectable=0;fillColor=none;top=0;left=0;bottom=0;right=0;align=left;spacingLeft=6;fontStyle=5;overflow=hidden;whiteSpace=wrap;html=1;" vertex="1" parent="3Z8iZQ5EBubLeYBYE2G_-57">
          <mxGeometry x="30" width="150" height="30" as="geometry">
            <mxRectangle width="150" height="30" as="alternateBounds" />
          </mxGeometry>
        </mxCell>
        <mxCell id="3Z8iZQ5EBubLeYBYE2G_-60" value="" style="shape=tableRow;horizontal=0;startSize=0;swimlaneHead=0;swimlaneBody=0;fillColor=none;collapsible=0;dropTarget=0;points=[[0,0.5],[1,0.5]];portConstraint=eastwest;top=0;left=0;right=0;bottom=0;" vertex="1" parent="3Z8iZQ5EBubLeYBYE2G_-56">
          <mxGeometry y="60" width="180" height="30" as="geometry" />
        </mxCell>
        <mxCell id="3Z8iZQ5EBubLeYBYE2G_-61" value="" style="shape=partialRectangle;connectable=0;fillColor=none;top=0;left=0;bottom=0;right=0;editable=1;overflow=hidden;whiteSpace=wrap;html=1;" vertex="1" parent="3Z8iZQ5EBubLeYBYE2G_-60">
          <mxGeometry width="30" height="30" as="geometry">
            <mxRectangle width="30" height="30" as="alternateBounds" />
          </mxGeometry>
        </mxCell>
        <mxCell id="3Z8iZQ5EBubLeYBYE2G_-62" value="nombre" style="shape=partialRectangle;connectable=0;fillColor=none;top=0;left=0;bottom=0;right=0;align=left;spacingLeft=6;overflow=hidden;whiteSpace=wrap;html=1;" vertex="1" parent="3Z8iZQ5EBubLeYBYE2G_-60">
          <mxGeometry x="30" width="150" height="30" as="geometry">
            <mxRectangle width="150" height="30" as="alternateBounds" />
          </mxGeometry>
        </mxCell>
        <mxCell id="3Z8iZQ5EBubLeYBYE2G_-63" value="" style="shape=tableRow;horizontal=0;startSize=0;swimlaneHead=0;swimlaneBody=0;fillColor=none;collapsible=0;dropTarget=0;points=[[0,0.5],[1,0.5]];portConstraint=eastwest;top=0;left=0;right=0;bottom=0;" vertex="1" parent="3Z8iZQ5EBubLeYBYE2G_-56">
          <mxGeometry y="90" width="180" height="30" as="geometry" />
        </mxCell>
        <mxCell id="3Z8iZQ5EBubLeYBYE2G_-64" value="" style="shape=partialRectangle;connectable=0;fillColor=none;top=0;left=0;bottom=0;right=0;editable=1;overflow=hidden;whiteSpace=wrap;html=1;" vertex="1" parent="3Z8iZQ5EBubLeYBYE2G_-63">
          <mxGeometry width="30" height="30" as="geometry">
            <mxRectangle width="30" height="30" as="alternateBounds" />
          </mxGeometry>
        </mxCell>
        <mxCell id="3Z8iZQ5EBubLeYBYE2G_-65" value="dirección" style="shape=partialRectangle;connectable=0;fillColor=none;top=0;left=0;bottom=0;right=0;align=left;spacingLeft=6;overflow=hidden;whiteSpace=wrap;html=1;" vertex="1" parent="3Z8iZQ5EBubLeYBYE2G_-63">
          <mxGeometry x="30" width="150" height="30" as="geometry">
            <mxRectangle width="150" height="30" as="alternateBounds" />
          </mxGeometry>
        </mxCell>
        <mxCell id="3Z8iZQ5EBubLeYBYE2G_-66" value="" style="shape=tableRow;horizontal=0;startSize=0;swimlaneHead=0;swimlaneBody=0;fillColor=none;collapsible=0;dropTarget=0;points=[[0,0.5],[1,0.5]];portConstraint=eastwest;top=0;left=0;right=0;bottom=0;" vertex="1" parent="3Z8iZQ5EBubLeYBYE2G_-56">
          <mxGeometry y="120" width="180" height="30" as="geometry" />
        </mxCell>
        <mxCell id="3Z8iZQ5EBubLeYBYE2G_-67" value="" style="shape=partialRectangle;connectable=0;fillColor=none;top=0;left=0;bottom=0;right=0;editable=1;overflow=hidden;whiteSpace=wrap;html=1;" vertex="1" parent="3Z8iZQ5EBubLeYBYE2G_-66">
          <mxGeometry width="30" height="30" as="geometry">
            <mxRectangle width="30" height="30" as="alternateBounds" />
          </mxGeometry>
        </mxCell>
        <mxCell id="3Z8iZQ5EBubLeYBYE2G_-68" value="teléfono" style="shape=partialRectangle;connectable=0;fillColor=none;top=0;left=0;bottom=0;right=0;align=left;spacingLeft=6;overflow=hidden;whiteSpace=wrap;html=1;" vertex="1" parent="3Z8iZQ5EBubLeYBYE2G_-66">
          <mxGeometry x="30" width="150" height="30" as="geometry">
            <mxRectangle width="150" height="30" as="alternateBounds" />
          </mxGeometry>
        </mxCell>
        <mxCell id="3Z8iZQ5EBubLeYBYE2G_-69" value="préstamo" style="shape=table;startSize=30;container=1;collapsible=1;childLayout=tableLayout;fixedRows=1;rowLines=0;fontStyle=1;align=center;resizeLast=1;html=1;whiteSpace=wrap;rounded=1;shadow=1;" vertex="1" parent="1">
          <mxGeometry x="245" y="320" width="180" height="180" as="geometry" />
        </mxCell>
        <mxCell id="3Z8iZQ5EBubLeYBYE2G_-70" value="" style="shape=tableRow;horizontal=0;startSize=0;swimlaneHead=0;swimlaneBody=0;fillColor=none;collapsible=0;dropTarget=0;points=[[0,0.5],[1,0.5]];portConstraint=eastwest;top=0;left=0;right=0;bottom=0;html=1;" vertex="1" parent="3Z8iZQ5EBubLeYBYE2G_-69">
          <mxGeometry y="30" width="180" height="30" as="geometry" />
        </mxCell>
        <mxCell id="3Z8iZQ5EBubLeYBYE2G_-71" value="FK" style="shape=partialRectangle;connectable=0;fillColor=none;top=0;left=0;bottom=0;right=0;fontStyle=1;overflow=hidden;html=1;whiteSpace=wrap;" vertex="1" parent="3Z8iZQ5EBubLeYBYE2G_-70">
          <mxGeometry width="45" height="30" as="geometry">
            <mxRectangle width="45" height="30" as="alternateBounds" />
          </mxGeometry>
        </mxCell>
        <mxCell id="3Z8iZQ5EBubLeYBYE2G_-72" value="id_usuario" style="shape=partialRectangle;connectable=0;fillColor=none;top=0;left=0;bottom=0;right=0;align=left;spacingLeft=6;fontStyle=5;overflow=hidden;html=1;whiteSpace=wrap;" vertex="1" parent="3Z8iZQ5EBubLeYBYE2G_-70">
          <mxGeometry x="45" width="135" height="30" as="geometry">
            <mxRectangle width="135" height="30" as="alternateBounds" />
          </mxGeometry>
        </mxCell>
        <mxCell id="3Z8iZQ5EBubLeYBYE2G_-73" value="" style="shape=tableRow;horizontal=0;startSize=0;swimlaneHead=0;swimlaneBody=0;fillColor=none;collapsible=0;dropTarget=0;points=[[0,0.5],[1,0.5]];portConstraint=eastwest;top=0;left=0;right=0;bottom=1;html=1;" vertex="1" parent="3Z8iZQ5EBubLeYBYE2G_-69">
          <mxGeometry y="60" width="180" height="30" as="geometry" />
        </mxCell>
        <mxCell id="3Z8iZQ5EBubLeYBYE2G_-74" value="FK" style="shape=partialRectangle;connectable=0;fillColor=none;top=0;left=0;bottom=0;right=0;fontStyle=1;overflow=hidden;html=1;whiteSpace=wrap;" vertex="1" parent="3Z8iZQ5EBubLeYBYE2G_-73">
          <mxGeometry width="45" height="30" as="geometry">
            <mxRectangle width="45" height="30" as="alternateBounds" />
          </mxGeometry>
        </mxCell>
        <mxCell id="3Z8iZQ5EBubLeYBYE2G_-75" value="id_libro" style="shape=partialRectangle;connectable=0;fillColor=none;top=0;left=0;bottom=0;right=0;align=left;spacingLeft=6;fontStyle=5;overflow=hidden;html=1;whiteSpace=wrap;" vertex="1" parent="3Z8iZQ5EBubLeYBYE2G_-73">
          <mxGeometry x="45" width="135" height="30" as="geometry">
            <mxRectangle width="135" height="30" as="alternateBounds" />
          </mxGeometry>
        </mxCell>
        <mxCell id="3Z8iZQ5EBubLeYBYE2G_-76" value="" style="shape=tableRow;horizontal=0;startSize=0;swimlaneHead=0;swimlaneBody=0;fillColor=none;collapsible=0;dropTarget=0;points=[[0,0.5],[1,0.5]];portConstraint=eastwest;top=0;left=0;right=0;bottom=0;html=1;" vertex="1" parent="3Z8iZQ5EBubLeYBYE2G_-69">
          <mxGeometry y="90" width="180" height="30" as="geometry" />
        </mxCell>
        <mxCell id="3Z8iZQ5EBubLeYBYE2G_-77" value="&lt;b&gt;PK&lt;/b&gt;" style="shape=partialRectangle;connectable=0;fillColor=none;top=0;left=0;bottom=0;right=0;editable=1;overflow=hidden;html=1;whiteSpace=wrap;" vertex="1" parent="3Z8iZQ5EBubLeYBYE2G_-76">
          <mxGeometry width="45" height="30" as="geometry">
            <mxRectangle width="45" height="30" as="alternateBounds" />
          </mxGeometry>
        </mxCell>
        <mxCell id="3Z8iZQ5EBubLeYBYE2G_-78" value="id_préstamo" style="shape=partialRectangle;connectable=0;fillColor=none;top=0;left=0;bottom=0;right=0;align=left;spacingLeft=6;overflow=hidden;html=1;whiteSpace=wrap;" vertex="1" parent="3Z8iZQ5EBubLeYBYE2G_-76">
          <mxGeometry x="45" width="135" height="30" as="geometry">
            <mxRectangle width="135" height="30" as="alternateBounds" />
          </mxGeometry>
        </mxCell>
        <mxCell id="3Z8iZQ5EBubLeYBYE2G_-79" value="" style="shape=tableRow;horizontal=0;startSize=0;swimlaneHead=0;swimlaneBody=0;fillColor=none;collapsible=0;dropTarget=0;points=[[0,0.5],[1,0.5]];portConstraint=eastwest;top=0;left=0;right=0;bottom=0;html=1;" vertex="1" parent="3Z8iZQ5EBubLeYBYE2G_-69">
          <mxGeometry y="120" width="180" height="30" as="geometry" />
        </mxCell>
        <mxCell id="3Z8iZQ5EBubLeYBYE2G_-80" value="" style="shape=partialRectangle;connectable=0;fillColor=none;top=0;left=0;bottom=0;right=0;editable=1;overflow=hidden;html=1;whiteSpace=wrap;" vertex="1" parent="3Z8iZQ5EBubLeYBYE2G_-79">
          <mxGeometry width="45" height="30" as="geometry">
            <mxRectangle width="45" height="30" as="alternateBounds" />
          </mxGeometry>
        </mxCell>
        <mxCell id="3Z8iZQ5EBubLeYBYE2G_-81" value="fecha_préstamo" style="shape=partialRectangle;connectable=0;fillColor=none;top=0;left=0;bottom=0;right=0;align=left;spacingLeft=6;overflow=hidden;html=1;whiteSpace=wrap;" vertex="1" parent="3Z8iZQ5EBubLeYBYE2G_-79">
          <mxGeometry x="45" width="135" height="30" as="geometry">
            <mxRectangle width="135" height="30" as="alternateBounds" />
          </mxGeometry>
        </mxCell>
        <mxCell id="3Z8iZQ5EBubLeYBYE2G_-85" value="" style="shape=tableRow;horizontal=0;startSize=0;swimlaneHead=0;swimlaneBody=0;fillColor=none;collapsible=0;dropTarget=0;points=[[0,0.5],[1,0.5]];portConstraint=eastwest;top=0;left=0;right=0;bottom=0;html=1;" vertex="1" parent="3Z8iZQ5EBubLeYBYE2G_-69">
          <mxGeometry y="150" width="180" height="30" as="geometry" />
        </mxCell>
        <mxCell id="3Z8iZQ5EBubLeYBYE2G_-86" value="" style="shape=partialRectangle;connectable=0;fillColor=none;top=0;left=0;bottom=0;right=0;editable=1;overflow=hidden;html=1;whiteSpace=wrap;" vertex="1" parent="3Z8iZQ5EBubLeYBYE2G_-85">
          <mxGeometry width="45" height="30" as="geometry">
            <mxRectangle width="45" height="30" as="alternateBounds" />
          </mxGeometry>
        </mxCell>
        <mxCell id="3Z8iZQ5EBubLeYBYE2G_-87" value="fecha_devolución" style="shape=partialRectangle;connectable=0;fillColor=none;top=0;left=0;bottom=0;right=0;align=left;spacingLeft=6;overflow=hidden;html=1;whiteSpace=wrap;" vertex="1" parent="3Z8iZQ5EBubLeYBYE2G_-85">
          <mxGeometry x="45" width="135" height="30" as="geometry">
            <mxRectangle width="135" height="30" as="alternateBounds" />
          </mxGeometry>
        </mxCell>
        <mxCell id="3Z8iZQ5EBubLeYBYE2G_-88" value="libro" style="shape=table;startSize=30;container=1;collapsible=1;childLayout=tableLayout;fixedRows=1;rowLines=0;fontStyle=1;align=center;resizeLast=1;html=1;shadow=1;rounded=1;" vertex="1" parent="1">
          <mxGeometry x="470" y="320" width="180" height="150" as="geometry" />
        </mxCell>
        <mxCell id="3Z8iZQ5EBubLeYBYE2G_-89" value="" style="shape=tableRow;horizontal=0;startSize=0;swimlaneHead=0;swimlaneBody=0;fillColor=none;collapsible=0;dropTarget=0;points=[[0,0.5],[1,0.5]];portConstraint=eastwest;top=0;left=0;right=0;bottom=1;" vertex="1" parent="3Z8iZQ5EBubLeYBYE2G_-88">
          <mxGeometry y="30" width="180" height="30" as="geometry" />
        </mxCell>
        <mxCell id="3Z8iZQ5EBubLeYBYE2G_-90" value="PK" style="shape=partialRectangle;connectable=0;fillColor=none;top=0;left=0;bottom=0;right=0;fontStyle=1;overflow=hidden;whiteSpace=wrap;html=1;" vertex="1" parent="3Z8iZQ5EBubLeYBYE2G_-89">
          <mxGeometry width="30" height="30" as="geometry">
            <mxRectangle width="30" height="30" as="alternateBounds" />
          </mxGeometry>
        </mxCell>
        <mxCell id="3Z8iZQ5EBubLeYBYE2G_-91" value="id_libro" style="shape=partialRectangle;connectable=0;fillColor=none;top=0;left=0;bottom=0;right=0;align=left;spacingLeft=6;fontStyle=5;overflow=hidden;whiteSpace=wrap;html=1;" vertex="1" parent="3Z8iZQ5EBubLeYBYE2G_-89">
          <mxGeometry x="30" width="150" height="30" as="geometry">
            <mxRectangle width="150" height="30" as="alternateBounds" />
          </mxGeometry>
        </mxCell>
        <mxCell id="3Z8iZQ5EBubLeYBYE2G_-92" value="" style="shape=tableRow;horizontal=0;startSize=0;swimlaneHead=0;swimlaneBody=0;fillColor=none;collapsible=0;dropTarget=0;points=[[0,0.5],[1,0.5]];portConstraint=eastwest;top=0;left=0;right=0;bottom=0;" vertex="1" parent="3Z8iZQ5EBubLeYBYE2G_-88">
          <mxGeometry y="60" width="180" height="30" as="geometry" />
        </mxCell>
        <mxCell id="3Z8iZQ5EBubLeYBYE2G_-93" value="" style="shape=partialRectangle;connectable=0;fillColor=none;top=0;left=0;bottom=0;right=0;editable=1;overflow=hidden;whiteSpace=wrap;html=1;" vertex="1" parent="3Z8iZQ5EBubLeYBYE2G_-92">
          <mxGeometry width="30" height="30" as="geometry">
            <mxRectangle width="30" height="30" as="alternateBounds" />
          </mxGeometry>
        </mxCell>
        <mxCell id="3Z8iZQ5EBubLeYBYE2G_-94" value="título" style="shape=partialRectangle;connectable=0;fillColor=none;top=0;left=0;bottom=0;right=0;align=left;spacingLeft=6;overflow=hidden;whiteSpace=wrap;html=1;" vertex="1" parent="3Z8iZQ5EBubLeYBYE2G_-92">
          <mxGeometry x="30" width="150" height="30" as="geometry">
            <mxRectangle width="150" height="30" as="alternateBounds" />
          </mxGeometry>
        </mxCell>
        <mxCell id="3Z8iZQ5EBubLeYBYE2G_-95" value="" style="shape=tableRow;horizontal=0;startSize=0;swimlaneHead=0;swimlaneBody=0;fillColor=none;collapsible=0;dropTarget=0;points=[[0,0.5],[1,0.5]];portConstraint=eastwest;top=0;left=0;right=0;bottom=0;" vertex="1" parent="3Z8iZQ5EBubLeYBYE2G_-88">
          <mxGeometry y="90" width="180" height="30" as="geometry" />
        </mxCell>
        <mxCell id="3Z8iZQ5EBubLeYBYE2G_-96" value="" style="shape=partialRectangle;connectable=0;fillColor=none;top=0;left=0;bottom=0;right=0;editable=1;overflow=hidden;whiteSpace=wrap;html=1;" vertex="1" parent="3Z8iZQ5EBubLeYBYE2G_-95">
          <mxGeometry width="30" height="30" as="geometry">
            <mxRectangle width="30" height="30" as="alternateBounds" />
          </mxGeometry>
        </mxCell>
        <mxCell id="3Z8iZQ5EBubLeYBYE2G_-97" value="género" style="shape=partialRectangle;connectable=0;fillColor=none;top=0;left=0;bottom=0;right=0;align=left;spacingLeft=6;overflow=hidden;whiteSpace=wrap;html=1;" vertex="1" parent="3Z8iZQ5EBubLeYBYE2G_-95">
          <mxGeometry x="30" width="150" height="30" as="geometry">
            <mxRectangle width="150" height="30" as="alternateBounds" />
          </mxGeometry>
        </mxCell>
        <mxCell id="3Z8iZQ5EBubLeYBYE2G_-98" value="" style="shape=tableRow;horizontal=0;startSize=0;swimlaneHead=0;swimlaneBody=0;fillColor=none;collapsible=0;dropTarget=0;points=[[0,0.5],[1,0.5]];portConstraint=eastwest;top=0;left=0;right=0;bottom=0;" vertex="1" parent="3Z8iZQ5EBubLeYBYE2G_-88">
          <mxGeometry y="120" width="180" height="30" as="geometry" />
        </mxCell>
        <mxCell id="3Z8iZQ5EBubLeYBYE2G_-99" value="" style="shape=partialRectangle;connectable=0;fillColor=none;top=0;left=0;bottom=0;right=0;editable=1;overflow=hidden;whiteSpace=wrap;html=1;" vertex="1" parent="3Z8iZQ5EBubLeYBYE2G_-98">
          <mxGeometry width="30" height="30" as="geometry">
            <mxRectangle width="30" height="30" as="alternateBounds" />
          </mxGeometry>
        </mxCell>
        <mxCell id="3Z8iZQ5EBubLeYBYE2G_-100" value="anio_publicación" style="shape=partialRectangle;connectable=0;fillColor=none;top=0;left=0;bottom=0;right=0;align=left;spacingLeft=6;overflow=hidden;whiteSpace=wrap;html=1;" vertex="1" parent="3Z8iZQ5EBubLeYBYE2G_-98">
          <mxGeometry x="30" width="150" height="30" as="geometry">
            <mxRectangle width="150" height="30" as="alternateBounds" />
          </mxGeometry>
        </mxCell>
        <mxCell id="3Z8iZQ5EBubLeYBYE2G_-101" value="autor" style="shape=table;startSize=30;container=1;collapsible=1;childLayout=tableLayout;fixedRows=1;rowLines=0;fontStyle=1;align=center;resizeLast=1;html=1;shadow=1;rounded=1;" vertex="1" parent="1">
          <mxGeometry x="690" y="320" width="180" height="120" as="geometry" />
        </mxCell>
        <mxCell id="3Z8iZQ5EBubLeYBYE2G_-102" value="" style="shape=tableRow;horizontal=0;startSize=0;swimlaneHead=0;swimlaneBody=0;fillColor=none;collapsible=0;dropTarget=0;points=[[0,0.5],[1,0.5]];portConstraint=eastwest;top=0;left=0;right=0;bottom=1;" vertex="1" parent="3Z8iZQ5EBubLeYBYE2G_-101">
          <mxGeometry y="30" width="180" height="30" as="geometry" />
        </mxCell>
        <mxCell id="3Z8iZQ5EBubLeYBYE2G_-103" value="PK" style="shape=partialRectangle;connectable=0;fillColor=none;top=0;left=0;bottom=0;right=0;fontStyle=1;overflow=hidden;whiteSpace=wrap;html=1;" vertex="1" parent="3Z8iZQ5EBubLeYBYE2G_-102">
          <mxGeometry width="30" height="30" as="geometry">
            <mxRectangle width="30" height="30" as="alternateBounds" />
          </mxGeometry>
        </mxCell>
        <mxCell id="3Z8iZQ5EBubLeYBYE2G_-104" value="id_autor" style="shape=partialRectangle;connectable=0;fillColor=none;top=0;left=0;bottom=0;right=0;align=left;spacingLeft=6;fontStyle=5;overflow=hidden;whiteSpace=wrap;html=1;" vertex="1" parent="3Z8iZQ5EBubLeYBYE2G_-102">
          <mxGeometry x="30" width="150" height="30" as="geometry">
            <mxRectangle width="150" height="30" as="alternateBounds" />
          </mxGeometry>
        </mxCell>
        <mxCell id="3Z8iZQ5EBubLeYBYE2G_-105" value="" style="shape=tableRow;horizontal=0;startSize=0;swimlaneHead=0;swimlaneBody=0;fillColor=none;collapsible=0;dropTarget=0;points=[[0,0.5],[1,0.5]];portConstraint=eastwest;top=0;left=0;right=0;bottom=0;" vertex="1" parent="3Z8iZQ5EBubLeYBYE2G_-101">
          <mxGeometry y="60" width="180" height="30" as="geometry" />
        </mxCell>
        <mxCell id="3Z8iZQ5EBubLeYBYE2G_-106" value="" style="shape=partialRectangle;connectable=0;fillColor=none;top=0;left=0;bottom=0;right=0;editable=1;overflow=hidden;whiteSpace=wrap;html=1;" vertex="1" parent="3Z8iZQ5EBubLeYBYE2G_-105">
          <mxGeometry width="30" height="30" as="geometry">
            <mxRectangle width="30" height="30" as="alternateBounds" />
          </mxGeometry>
        </mxCell>
        <mxCell id="3Z8iZQ5EBubLeYBYE2G_-107" value="nombre" style="shape=partialRectangle;connectable=0;fillColor=none;top=0;left=0;bottom=0;right=0;align=left;spacingLeft=6;overflow=hidden;whiteSpace=wrap;html=1;" vertex="1" parent="3Z8iZQ5EBubLeYBYE2G_-105">
          <mxGeometry x="30" width="150" height="30" as="geometry">
            <mxRectangle width="150" height="30" as="alternateBounds" />
          </mxGeometry>
        </mxCell>
        <mxCell id="3Z8iZQ5EBubLeYBYE2G_-108" value="" style="shape=tableRow;horizontal=0;startSize=0;swimlaneHead=0;swimlaneBody=0;fillColor=none;collapsible=0;dropTarget=0;points=[[0,0.5],[1,0.5]];portConstraint=eastwest;top=0;left=0;right=0;bottom=0;" vertex="1" parent="3Z8iZQ5EBubLeYBYE2G_-101">
          <mxGeometry y="90" width="180" height="30" as="geometry" />
        </mxCell>
        <mxCell id="3Z8iZQ5EBubLeYBYE2G_-109" value="" style="shape=partialRectangle;connectable=0;fillColor=none;top=0;left=0;bottom=0;right=0;editable=1;overflow=hidden;whiteSpace=wrap;html=1;" vertex="1" parent="3Z8iZQ5EBubLeYBYE2G_-108">
          <mxGeometry width="30" height="30" as="geometry">
            <mxRectangle width="30" height="30" as="alternateBounds" />
          </mxGeometry>
        </mxCell>
        <mxCell id="3Z8iZQ5EBubLeYBYE2G_-110" value="nacionalidad" style="shape=partialRectangle;connectable=0;fillColor=none;top=0;left=0;bottom=0;right=0;align=left;spacingLeft=6;overflow=hidden;whiteSpace=wrap;html=1;" vertex="1" parent="3Z8iZQ5EBubLeYBYE2G_-108">
          <mxGeometry x="30" width="150" height="30" as="geometry">
            <mxRectangle width="150" height="30" as="alternateBounds" />
          </mxGeometry>
        </mxCell>
        <mxCell id="3Z8iZQ5EBubLeYBYE2G_-118" value="1: N" style="text;html=1;align=center;verticalAlign=middle;resizable=0;points=[];autosize=1;strokeColor=none;fillColor=none;" vertex="1" parent="1">
          <mxGeometry x="195" y="380" width="50" height="30" as="geometry" />
        </mxCell>
        <mxCell id="3Z8iZQ5EBubLeYBYE2G_-119" value="N: 1" style="text;html=1;align=center;verticalAlign=middle;resizable=0;points=[];autosize=1;strokeColor=none;fillColor=none;" vertex="1" parent="1">
          <mxGeometry x="425" y="380" width="50" height="30" as="geometry" />
        </mxCell>
        <mxCell id="3Z8iZQ5EBubLeYBYE2G_-120" value="N: 1" style="text;html=1;align=center;verticalAlign=middle;resizable=0;points=[];autosize=1;strokeColor=none;fillColor=none;" vertex="1" parent="1">
          <mxGeometry x="640" y="380" width="50" height="30" as="geometry" />
        </mxCell>
        <mxCell id="hvMdRfMXdUV9FLi5E2by-1" value="" style="endArrow=none;html=1;rounded=0;" edge="1" parent="1">
          <mxGeometry width="50" height="50" relative="1" as="geometry">
            <mxPoint x="130" y="120" as="sourcePoint" />
            <mxPoint x="160" y="120" as="targetPoint" />
          </mxGeometry>
        </mxCell>
        <mxCell id="hvMdRfMXdUV9FLi5E2by-2" value="" style="endArrow=none;html=1;rounded=0;" edge="1" parent="1">
          <mxGeometry width="50" height="50" relative="1" as="geometry">
            <mxPoint x="220" y="119.5" as="sourcePoint" />
            <mxPoint x="250" y="119.5" as="targetPoint" />
          </mxGeometry>
        </mxCell>
        <mxCell id="hvMdRfMXdUV9FLi5E2by-4" value="" style="endArrow=none;html=1;rounded=0;" edge="1" parent="1">
          <mxGeometry width="50" height="50" relative="1" as="geometry">
            <mxPoint x="340" y="119.5" as="sourcePoint" />
            <mxPoint x="370" y="120" as="targetPoint" />
          </mxGeometry>
        </mxCell>
        <mxCell id="hvMdRfMXdUV9FLi5E2by-5" value="" style="endArrow=none;html=1;rounded=0;" edge="1" parent="1">
          <mxGeometry width="50" height="50" relative="1" as="geometry">
            <mxPoint x="436" y="119.5" as="sourcePoint" />
            <mxPoint x="470" y="120" as="targetPoint" />
          </mxGeometry>
        </mxCell>
        <mxCell id="hvMdRfMXdUV9FLi5E2by-7" value="" style="endArrow=none;html=1;rounded=0;" edge="1" parent="1">
          <mxGeometry width="50" height="50" relative="1" as="geometry">
            <mxPoint x="560" y="120" as="sourcePoint" />
            <mxPoint x="590" y="120" as="targetPoint" />
          </mxGeometry>
        </mxCell>
        <mxCell id="hvMdRfMXdUV9FLi5E2by-8" value="" style="endArrow=none;html=1;rounded=0;" edge="1" parent="1">
          <mxGeometry width="50" height="50" relative="1" as="geometry">
            <mxPoint x="660" y="119.5" as="sourcePoint" />
            <mxPoint x="690" y="119.5" as="targetPoint" />
          </mxGeometry>
        </mxCell>
        <mxCell id="hvMdRfMXdUV9FLi5E2by-9" value="" style="fontSize=12;html=1;endArrow=ERzeroToMany;endFill=1;rounded=0;" edge="1" parent="1">
          <mxGeometry width="100" height="100" relative="1" as="geometry">
            <mxPoint x="690" y="380" as="sourcePoint" />
            <mxPoint x="650" y="379.5" as="targetPoint" />
          </mxGeometry>
        </mxCell>
        <mxCell id="hvMdRfMXdUV9FLi5E2by-10" value="" style="fontSize=12;html=1;endArrow=ERzeroToMany;endFill=1;rounded=0;" edge="1" parent="1">
          <mxGeometry width="100" height="100" relative="1" as="geometry">
            <mxPoint x="199" y="379.5" as="sourcePoint" />
            <mxPoint x="245" y="379.5" as="targetPoint" />
          </mxGeometry>
        </mxCell>
        <mxCell id="hvMdRfMXdUV9FLi5E2by-11" value="" style="fontSize=12;html=1;endArrow=ERzeroToMany;endFill=1;rounded=0;" edge="1" parent="1">
          <mxGeometry width="100" height="100" relative="1" as="geometry">
            <mxPoint x="469" y="380" as="sourcePoint" />
            <mxPoint x="425" y="379.5" as="targetPoint" />
          </mxGeometry>
        </mxCell>
      </root>
    </mxGraphModel>
  </diagram>
</mxfile>
